reg.ufo
<glyph name="x" format="1">
  <advance width="966"/>
  <unicode hex="0078"/>
  <outline>
    <contour>
      <point x="396" y="505" type="line"/>
      <point x="53" y="986" type="line"/>
      <point x="223" y="986" type="line"/>
      <point x="483" y="608" type="line"/>
      <point x="742" y="986" type="line"/>
      <point x="911" y="986" type="line"/>
      <point x="568" y="505" type="line"/>
      <point x="929" y="0" type="line"/>
      <point x="760" y="0" type="line"/>
      <point x="483" y="400" type="line"/>
      <point x="204" y="0" type="line"/>
      <point x="35" y="0" type="line"/>
    </contour>
  </outline>
</glyph>
<glyph name="visargadeva" format="1">
  <advance width="629"/>
  <unicode hex="0903"/>
  <outline>
    <contour>
      <point x="0" y="0" type="line"/>
      <point x="629" y="0" type="line"/>
      <point x="629" y="20" type="line"/>
      <point x="0" y="20" type="line"/>
    </contour>
  </outline>
</glyph>
<glyph name="adeva" format="1">
  <advance width="1587"/>
  <unicode hex="0905"/>
  <outline>
    <contour>
      <point x="353" y="684" type="line"/>
      <point x="322" y="805" type="line"/>
      <point x="334" y="805" type="line"/>
      <point x="641" y="810"/>
      <point x="718" y="897"/>
      <point x="718" y="1012" type="curve" smooth="yes"/>
      <point x="718" y="1099"/>
      <point x="655" y="1166"/>
      <point x="527" y="1166" type="curve" smooth="yes"/>
      <point x="426" y="1166"/>
      <point x="324" y="1130"/>
      <point x="239" y="1078" type="curve"/>
      <point x="196" y="1196" type="line"/>
      <point x="284" y="1243"/>
      <point x="392" y="1285"/>
      <point x="529" y="1285" type="curve" smooth="yes"/>
      <point x="736" y="1285"/>
      <point x="854" y="1175"/>
      <point x="854" y="990" type="curve" smooth="yes"/>
      <point x="854" y="820"/>
      <point x="711" y="691"/>
      <point x="365" y="685" type="curve" smooth="yes"/>
    </contour>
    <contour>
      <point x="647" y="808" type="line"/>
      <point x="808" y="717"/>
      <point x="906" y="619"/>
      <point x="906" y="451" type="curve" smooth="yes"/>
      <point x="906" y="289"/>
      <point x="778" y="147"/>
      <point x="570" y="147" type="curve" smooth="yes"/>
      <point x="420" y="147"/>
      <point x="295" y="199"/>
      <point x="131" y="326" type="curve"/>
      <point x="169" y="444" type="line"/>
      <point x="306" y="326"/>
      <point x="420" y="279"/>
      <point x="529" y="279" type="curve" smooth="yes"/>
      <point x="679" y="279"/>
      <point x="766" y="361"/>
      <point x="766" y="479" type="curve" smooth="yes"/>
      <point x="766" y="574"/>
      <point x="696" y="670"/>
      <point x="558" y="729" type="curve"/>
    </contour>
    <contour>
      <point x="782" y="658" type="line"/>
      <point x="835" y="637"/>
      <point x="945" y="627"/>
      <point x="998" y="627" type="curve" smooth="yes"/>
      <point x="1063" y="627"/>
      <point x="1164" y="648"/>
      <point x="1226" y="693" type="curve"/>
      <point x="1226" y="547" type="line"/>
      <point x="1184" y="526"/>
      <point x="1089" y="511"/>
      <point x="1032" y="511" type="curve" smooth="yes"/>
      <point x="967" y="511"/>
      <point x="848" y="526"/>
      <point x="796" y="545" type="curve"/>
    </contour>
    <contour>
      <point x="1206" y="1196" type="line"/>
      <point x="1360" y="1196" type="line"/>
      <point x="1360" y="0" type="line"/>
      <point x="1206" y="0" type="line"/>
    </contour>
    <contour>
      <point x="1606" y="1165" type="line"/>
      <point x="986" y="1165" type="line"/>
      <point x="986" y="1279" type="line"/>
      <point x="1606" y="1279" type="line"/>
    </contour>
  </outline>
</glyph>
<glyph name="udeva" format="1">
  <advance width="1054"/>
  <unicode hex="0909"/>
  <outline>
    <contour>
      <point x="335" y="664" type="line"/>
      <point x="305" y="790" type="line"/>
      <point x="315" y="790" type="line"/>
      <point x="620" y="794"/>
      <point x="701" y="890"/>
      <point x="701" y="1012" type="curve" smooth="yes"/>
      <point x="701" y="1109"/>
      <point x="643" y="1171"/>
      <point x="538" y="1171" type="curve"/>
      <point x="574" y="1268" type="line"/>
      <point x="728" y="1268"/>
      <point x="838" y="1150"/>
      <point x="838" y="985" type="curve" smooth="yes"/>
      <point x="838" y="813"/>
      <point x="701" y="670"/>
      <point x="347" y="665" type="curve"/>
    </contour>
    <contour>
      <point x="626" y="784" type="line"/>
      <point x="807" y="691"/>
      <point x="911" y="570"/>
      <point x="911" y="407" type="curve" smooth="yes"/>
      <point x="911" y="215"/>
      <point x="758" y="90"/>
      <point x="557" y="90" type="curve" smooth="yes"/>
      <point x="396" y="90"/>
      <point x="266" y="131"/>
      <point x="88" y="262" type="curve"/>
      <point x="127" y="382" type="line"/>
      <point x="282" y="261"/>
      <point x="402" y="224"/>
      <point x="513" y="224" type="curve" smooth="yes"/>
      <point x="680" y="224"/>
      <point x="768" y="317"/>
      <point x="768" y="433" type="curve" smooth="yes"/>
      <point x="768" y="529"/>
      <point x="686" y="644"/>
      <point x="531" y="698" type="curve"/>
    </contour>
    <contour>
      <point x="-27" y="1165" type="line"/>
      <point x="-27" y="1279" type="line"/>
      <point x="1060" y="1279" type="line"/>
      <point x="1060" y="1165" type="line"/>
    </contour>
    <contour>
      <point x="736" y="1282" type="move" name="mark0"/>
    </contour>
    <contour>
      <point x="-96" y="8" type="move" name="x36"/>
    </contour>
  </outline>
</glyph>
<glyph name="rvocalicdeva" format="1">
  <advance width="1759"/>
  <unicode hex="090B"/>
  <outline>
    <contour>
      <point x="0" y="0" type="line"/>
      <point x="1759" y="0" type="line"/>
      <point x="1759" y="20" type="line"/>
      <point x="0" y="20" type="line"/>
    </contour>
  </outline>
</glyph>
<glyph name="edeva" format="1">
  <advance width="1129"/>
  <unicode hex="090F"/>
  <outline>
    <contour>
      <point x="917" y="1215" type="line"/>
      <point x="917" y="742" type="line"/>
      <point x="917" y="654"/>
      <point x="887" y="571"/>
      <point x="821" y="479" type="curve"/>
      <point x="690" y="552" type="line"/>
      <point x="741" y="636"/>
      <point x="763" y="694"/>
      <point x="763" y="816" type="curve" smooth="yes"/>
      <point x="763" y="1215" type="line"/>
    </contour>
    <contour>
      <point x="-29" y="1164" type="line"/>
      <point x="-29" y="1279" type="line"/>
      <point x="1149" y="1279" type="line"/>
      <point x="1149" y="1164" type="line"/>
    </contour>
    <contour>
      <point x="156" y="1215" type="line"/>
      <point x="309" y="1215" type="line"/>
      <point x="309" y="710" type="line"/>
      <point x="309" y="595"/>
      <point x="344" y="537"/>
      <point x="423" y="483" type="curve" smooth="yes"/>
      <point x="786" y="238" type="line"/>
      <point x="894" y="165"/>
      <point x="941" y="102"/>
      <point x="941" y="25" type="curve" smooth="yes"/>
      <point x="941" y="-36"/>
      <point x="924" y="-80"/>
      <point x="883" y="-162" type="curve"/>
      <point x="732" y="-119" type="line"/>
      <point x="763" y="-66"/>
      <point x="781" y="-23"/>
      <point x="781" y="14" type="curve" smooth="yes"/>
      <point x="781" y="57"/>
      <point x="756" y="95"/>
      <point x="692" y="139" type="curve" smooth="yes"/>
      <point x="326" y="390" type="line"/>
      <point x="199" y="477"/>
      <point x="156" y="568"/>
      <point x="156" y="726" type="curve" smooth="yes"/>
    </contour>
    <contour>
      <point x="-81" y="8" type="move" name="x44"/>
    </contour>
    <contour>
      <point x="816" y="1282" type="move" name="mark0"/>
    </contour>
  </outline>
</glyph>
<glyph name="kadeva" format="1">
  <advance width="1470"/>
  <unicode hex="0915"/>
  <outline>
    <contour>
      <point x="809" y="588" type="curve"/>
      <point x="795" y="765" type="line"/>
      <point x="861" y="801"/>
      <point x="964" y="838"/>
      <point x="1064" y="838" type="curve" smooth="yes"/>
      <point x="1252" y="838"/>
      <point x="1396" y="716"/>
      <point x="1396" y="535" type="curve" smooth="yes"/>
      <point x="1396" y="402"/>
      <point x="1350" y="293"/>
      <point x="1271" y="178" type="curve"/>
      <point x="1144" y="226" type="line"/>
      <point x="1227" y="349"/>
      <point x="1264" y="444"/>
      <point x="1264" y="551" type="curve" smooth="yes"/>
      <point x="1264" y="650"/>
      <point x="1187" y="709"/>
      <point x="1074" y="709" type="curve" smooth="yes"/>
      <point x="995" y="709"/>
      <point x="887" y="662"/>
    </contour>
    <contour>
      <point x="-42" y="1165" type="line"/>
      <point x="-42" y="1279" type="line"/>
      <point x="1536" y="1279" type="line"/>
      <point x="1536" y="1165" type="line"/>
    </contour>
    <contour>
      <point x="709" y="582" type="curve"/>
      <point x="709" y="406" type="line"/>
      <point x="630" y="339"/>
      <point x="545" y="286"/>
      <point x="423" y="286" type="curve" smooth="yes"/>
      <point x="224" y="286"/>
      <point x="79" y="444"/>
      <point x="79" y="636" type="curve" smooth="yes"/>
      <point x="79" y="789"/>
      <point x="196" y="908"/>
      <point x="397" y="908" type="curve" smooth="yes"/>
      <point x="532" y="908"/>
      <point x="628" y="871"/>
      <point x="715" y="816" type="curve"/>
      <point x="715" y="698" type="line"/>
      <point x="610" y="765"/>
      <point x="531" y="789"/>
      <point x="428" y="789" type="curve" smooth="yes"/>
      <point x="285" y="789"/>
      <point x="211" y="707"/>
      <point x="211" y="604" type="curve" smooth="yes"/>
      <point x="211" y="502"/>
      <point x="288" y="413"/>
      <point x="407" y="413" type="curve" smooth="yes"/>
      <point x="530" y="413"/>
      <point x="623" y="475"/>
    </contour>
    <contour>
      <point x="686" y="1196" type="line"/>
      <point x="839" y="1196" type="line"/>
      <point x="839" y="0" type="line"/>
      <point x="686" y="0" type="line"/>
    </contour>
    <contour>
      <point x="-112" y="8" type="move" name="x47"/>
    </contour>
    <contour>
      <point x="729" y="8" type="move" name="x46"/>
    </contour>
    <contour>
      <point x="729" y="8" type="move" name="mark0"/>
    </contour>
  </outline>
</glyph>
<glyph name="gadeva" format="1">
  <advance width="1235"/>
  <unicode hex="0917"/>
  <outline>
    <contour>
      <point x="446" y="1203" type="line"/>
      <point x="446" y="436" type="line"/>
      <point x="446" y="389"/>
      <point x="433" y="367"/>
      <point x="388" y="367" type="curve" smooth="yes"/>
      <point x="316" y="367"/>
      <point x="143" y="530"/>
      <point x="143" y="596" type="curve" smooth="yes"/>
      <point x="142" y="630"/>
      <point x="160" y="654"/>
      <point x="211" y="654" type="curve" smooth="yes"/>
      <point x="324" y="654" type="line"/>
      <point x="292" y="621" type="line"/>
      <point x="292" y="1203" type="line"/>
    </contour>
    <contour>
      <point x="854" y="1196" type="line"/>
      <point x="1007" y="1196" type="line"/>
      <point x="1007" y="0" type="line"/>
      <point x="854" y="0" type="line"/>
    </contour>
    <contour>
      <point x="1254" y="1165" type="line"/>
      <point x="-30" y="1165" type="line"/>
      <point x="-30" y="1279" type="line"/>
      <point x="1254" y="1279" type="line"/>
    </contour>
  </outline>
</glyph>
<glyph name="ngadeva" format="1">
  <advance width="1275"/>
  <unicode hex="0919"/>
  <outline>
    <contour>
      <point x="1016" y="811" type="curve"/>
      <point x="1016" y="856"/>
      <point x="1034" y="933"/>
      <point x="1071" y="933" type="curve"/>
      <point x="1108" y="933"/>
      <point x="1219" y="911"/>
      <point x="1219" y="866" type="curve"/>
      <point x="1219" y="821"/>
      <point x="1200" y="743"/>
      <point x="1162" y="743" type="curve"/>
      <point x="1125" y="743"/>
      <point x="1016" y="766"/>
    </contour>
    <contour>
      <point x="1101" y="1108" type="curve" smooth="yes"/>
      <point x="1133" y="1108"/>
      <point x="1143" y="1147"/>
      <point x="1143" y="1132" type="curve" smooth="yes"/>
      <point x="1143" y="1117"/>
      <point x="1310" y="1098"/>
      <point x="1280" y="1098" type="curve" smooth="yes"/>
      <point x="1248" y="1098"/>
      <point x="1237" y="1059"/>
      <point x="1237" y="1074" type="curve" smooth="yes"/>
      <point x="1237" y="1089"/>
      <point x="1069" y="1108"/>
    </contour>
    <component base="ddadeva"/>
    <contour>
      <point x="34" y="8" type="move" name="x56"/>
    </contour>
    <contour>
      <point x="1723" y="8" type="move" name="x57"/>
    </contour>
    <contour>
      <point x="839" y="8" type="move" name="mark0"/>
    </contour>
  </outline>
</glyph>
<glyph name="jadeva" format="1">
  <advance width="1469"/>
  <unicode hex="091C"/>
  <outline>
    <contour>
      <point x="-49" y="1165" type="line"/>
      <point x="-49" y="1279" type="line"/>
      <point x="1488" y="1279" type="line"/>
      <point x="1488" y="1165" type="line"/>
    </contour>
    <contour>
      <point x="600" y="746" type="line"/>
      <point x="609" y="785" type="line"/>
      <point x="759" y="713"/>
      <point x="858" y="578"/>
      <point x="858" y="434" type="curve" smooth="yes"/>
      <point x="858" y="269"/>
      <point x="744" y="152"/>
      <point x="568" y="152" type="curve" smooth="yes"/>
      <point x="395" y="152"/>
      <point x="232" y="271"/>
      <point x="45" y="534" type="curve"/>
      <point x="125" y="642" type="line"/>
      <point x="290" y="395"/>
      <point x="424" y="292"/>
      <point x="534" y="292" type="curve" smooth="yes"/>
      <point x="650" y="292"/>
      <point x="716" y="356"/>
      <point x="716" y="463" type="curve" smooth="yes"/>
      <point x="716" y="598"/>
      <point x="598" y="706"/>
      <point x="414" y="760" type="curve"/>
      <point x="414" y="871" type="line"/>
      <point x="1114" y="871" type="line"/>
      <point x="1114" y="746" type="line"/>
    </contour>
    <contour>
      <point x="1088" y="1196" type="line"/>
      <point x="1241" y="1196" type="line"/>
      <point x="1241" y="0" type="line"/>
      <point x="1088" y="0" type="line"/>
    </contour>
  </outline>
</glyph>
<glyph name="nyadeva" format="1">
  <advance width="1521"/>
  <unicode hex="091E"/>
  <outline>
    <contour>
      <point x="812" y="533" type="curve"/>
      <point x="812" y="654" type="line"/>
      <point x="846" y="641"/>
      <point x="922" y="635"/>
      <point x="967" y="635" type="curve" smooth="yes"/>
      <point x="1014" y="635"/>
      <point x="1104" y="645"/>
      <point x="1171" y="676" type="curve"/>
      <point x="1171" y="536" type="line"/>
      <point x="1124" y="518"/>
      <point x="1049" y="511"/>
      <point x="998" y="511" type="curve" smooth="yes"/>
      <point x="938" y="511"/>
      <point x="871" y="520"/>
    </contour>
    <contour>
      <point x="864" y="568" type="curve" smooth="yes"/>
      <point x="864" y="353"/>
      <point x="723" y="225"/>
      <point x="540" y="225" type="curve" smooth="yes"/>
      <point x="347" y="225"/>
      <point x="218" y="302"/>
      <point x="22" y="496" type="curve"/>
      <point x="79" y="605" type="line"/>
      <point x="261" y="422"/>
      <point x="373" y="356"/>
      <point x="502" y="356" type="curve" smooth="yes"/>
      <point x="645" y="356"/>
      <point x="732" y="455"/>
      <point x="732" y="587" type="curve" smooth="yes"/>
      <point x="731" y="694"/>
      <point x="630" y="781"/>
      <point x="504" y="781" type="curve" smooth="yes"/>
      <point x="417" y="781"/>
      <point x="364" y="759"/>
      <point x="299" y="710" type="curve"/>
      <point x="239" y="821" type="line"/>
      <point x="318" y="872"/>
      <point x="390" y="905"/>
      <point x="505" y="905" type="curve" smooth="yes"/>
      <point x="700" y="905"/>
      <point x="864" y="773"/>
    </contour>
    <contour>
      <point x="-36" y="1165" type="line"/>
      <point x="-36" y="1279" type="line"/>
      <point x="1541" y="1279" type="line"/>
      <point x="1541" y="1165" type="line"/>
    </contour>
    <contour>
      <point x="1140" y="1196" type="line"/>
      <point x="1294" y="1196" type="line"/>
      <point x="1294" y="0" type="line"/>
      <point x="1140" y="0" type="line"/>
    </contour>
  </outline>
</glyph>
<glyph name="ttadeva" format="1">
  <advance width="1091"/>
  <unicode hex="091F"/>
  <outline>
    <contour>
      <point x="690" y="1204" type="line"/>
      <point x="839" y="1204" type="line"/>
      <point x="839" y="768" type="line"/>
      <point x="596" y="768" type="line"/>
      <point x="366" y="768"/>
      <point x="264" y="662"/>
      <point x="264" y="506" type="curve" smooth="yes"/>
      <point x="264" y="356"/>
      <point x="410" y="244"/>
      <point x="586" y="244" type="curve" smooth="yes"/>
      <point x="706" y="244"/>
      <point x="780" y="258"/>
      <point x="903" y="306" type="curve"/>
      <point x="943" y="182" type="line"/>
      <point x="804" y="133"/>
      <point x="739" y="121"/>
      <point x="613" y="121" type="curve" smooth="yes"/>
      <point x="310" y="121"/>
      <point x="111" y="303"/>
      <point x="111" y="532" type="curve" smooth="yes"/>
      <point x="111" y="729"/>
      <point x="254" y="884"/>
      <point x="530" y="884" type="curve" smooth="yes"/>
      <point x="730" y="884" type="line"/>
      <point x="690" y="851" type="line"/>
    </contour>
    <contour>
      <point x="1134" y="1165" type="line"/>
      <point x="-33" y="1165" type="line"/>
      <point x="-33" y="1279" type="line"/>
      <point x="1134" y="1279" type="line"/>
    </contour>
    <contour>
      <point x="595" y="8" type="move" name="mark0"/>
    </contour>
    <contour>
      <point x="1170" y="8" type="move" name="x29"/>
    </contour>
    <contour>
      <point x="-22" y="8" type="move" name="x28"/>
    </contour>
  </outline>
</glyph>
<glyph name="nnadeva" format="1">
  <advance width="1525"/>
  <unicode hex="0923"/>
  <outline>
    <contour>
      <point x="673" y="1200" type="line"/>
      <point x="827" y="1200" type="line"/>
      <point x="827" y="716" type="line"/>
      <point x="827" y="493"/>
      <point x="733" y="360"/>
      <point x="502" y="360" type="curve" smooth="yes"/>
      <point x="278" y="360"/>
      <point x="152" y="493"/>
      <point x="152" y="728" type="curve" smooth="yes"/>
      <point x="152" y="1200" type="line"/>
      <point x="306" y="1200" type="line"/>
      <point x="306" y="688" type="line"/>
      <point x="306" y="554"/>
      <point x="373" y="485"/>
      <point x="483" y="485" type="curve" smooth="yes"/>
      <point x="611" y="485"/>
      <point x="673" y="555"/>
      <point x="673" y="722" type="curve" smooth="yes"/>
    </contour>
    <contour>
      <point x="-31" y="1165" type="line"/>
      <point x="-31" y="1279" type="line"/>
      <point x="1544" y="1279" type="line"/>
      <point x="1544" y="1165" type="line"/>
    </contour>
    <contour>
      <point x="1144" y="1196" type="line"/>
      <point x="1298" y="1196" type="line"/>
      <point x="1298" y="0" type="line"/>
      <point x="1144" y="0" type="line"/>
    </contour>
  </outline>
</glyph>
<glyph name="dhadeva" format="1">
  <advance width="1244"/>
  <unicode hex="0927"/>
  <outline>
    <contour>
      <point x="652" y="754" type="line"/>
      <point x="642" y="754" type="line"/>
      <point x="418" y="751"/>
      <point x="348" y="659"/>
      <point x="348" y="549" type="curve" smooth="yes"/>
      <point x="348" y="445"/>
      <point x="442" y="376"/>
      <point x="552" y="376" type="curve" smooth="yes"/>
      <point x="680" y="377"/>
      <point x="802" y="441"/>
      <point x="894" y="557" type="curve"/>
      <point x="895" y="356" type="line"/>
      <point x="805" y="288"/>
      <point x="685" y="250"/>
      <point x="570" y="250" type="curve" smooth="yes"/>
      <point x="361" y="250"/>
      <point x="210" y="387"/>
      <point x="210" y="570" type="curve" smooth="yes"/>
      <point x="210" y="721"/>
      <point x="319" y="875"/>
      <point x="602" y="875" type="curve" smooth="yes"/>
      <point x="613" y="875" type="line"/>
    </contour>
    <contour>
      <point x="350" y="755" type="line"/>
      <point x="152" y="798"/>
      <point x="33" y="906"/>
      <point x="33" y="1080" type="curve" smooth="yes"/>
      <point x="33" y="1217"/>
      <point x="134" y="1317"/>
      <point x="295" y="1317" type="curve" smooth="yes"/>
      <point x="399" y="1317"/>
      <point x="467" y="1296"/>
      <point x="535" y="1264" type="curve"/>
      <point x="510" y="1151" type="line"/>
      <point x="462" y="1175"/>
      <point x="405" y="1192"/>
      <point x="338" y="1192" type="curve" smooth="yes"/>
      <point x="239" y="1192"/>
      <point x="183" y="1126"/>
      <point x="183" y="1050" type="curve" smooth="yes"/>
      <point x="183" y="940"/>
      <point x="268" y="866"/>
      <point x="470" y="844" type="curve"/>
    </contour>
    <contour>
      <point x="862" y="1195" type="line"/>
      <point x="1016" y="1195" type="line"/>
      <point x="1016" y="0" type="line"/>
      <point x="862" y="0" type="line"/>
    </contour>
    <contour>
      <point x="1263" y="1165" type="line"/>
      <point x="758" y="1165" type="line"/>
      <point x="758" y="1278" type="line"/>
      <point x="1263" y="1278" type="line"/>
    </contour>
  </outline>
</glyph>
<glyph name="nadeva" format="1">
  <advance width="1168"/>
  <unicode hex="0928"/>
  <outline>
    <contour>
      <point x="805" y="793" type="line"/>
      <point x="805" y="665" type="line"/>
      <point x="280" y="665" type="line"/>
      <point x="330" y="716" type="line"/>
      <point x="330" y="474" type="line"/>
      <point x="330" y="427"/>
      <point x="309" y="401"/>
      <point x="266" y="401" type="curve" smooth="yes"/>
      <point x="213" y="401"/>
      <point x="126" y="591"/>
      <point x="126" y="712" type="curve" smooth="yes"/>
      <point x="126" y="765"/>
      <point x="149" y="793"/>
      <point x="217" y="793" type="curve" smooth="yes"/>
    </contour>
    <contour>
      <point x="-40" y="1165" type="line"/>
      <point x="-40" y="1279" type="line"/>
      <point x="1186" y="1279" type="line"/>
      <point x="1186" y="1165" type="line"/>
    </contour>
    <contour>
      <point x="786" y="1196" type="line"/>
      <point x="940" y="1196" type="line"/>
      <point x="940" y="0" type="line"/>
      <point x="786" y="0" type="line"/>
    </contour>
  </outline>
</glyph>
<glyph name="badeva" format="1">
  <advance width="1144"/>
  <unicode hex="092C"/>
  <outline>
    <contour>
      <point x="744" y="423" type="line"/>
      <point x="668" y="365" type="line"/>
      <point x="298" y="790" type="line"/>
      <point x="374" y="848" type="line"/>
    </contour>
    <component base="vadeva"/>
  </outline>
</glyph>
<glyph name="madeva" format="1">
  <advance width="1206"/>
  <unicode hex="092E"/>
  <outline>
    <contour>
      <point x="-32" y="1165" type="line"/>
      <point x="-32" y="1279" type="line"/>
      <point x="1224" y="1279" type="line"/>
      <point x="1224" y="1165" type="line"/>
    </contour>
    <contour>
      <point x="230" y="1205" type="line"/>
      <point x="384" y="1205" type="line"/>
      <point x="384" y="613" type="line"/>
      <point x="352" y="642" type="line"/>
      <point x="881" y="642" type="line"/>
      <point x="881" y="518" type="line"/>
      <point x="349" y="518" type="line"/>
      <point x="384" y="546" type="line"/>
      <point x="384" y="407" type="line"/>
      <point x="384" y="363"/>
      <point x="369" y="342"/>
      <point x="325" y="342" type="curve" smooth="yes"/>
      <point x="252" y="342"/>
      <point x="96" y="515"/>
      <point x="96" y="581" type="curve" smooth="yes"/>
      <point x="96" y="620"/>
      <point x="115" y="641"/>
      <point x="159" y="641" type="curve" smooth="yes"/>
      <point x="260" y="641" type="line"/>
      <point x="230" y="612" type="line"/>
    </contour>
    <contour>
      <point x="825" y="1196" type="line"/>
      <point x="978" y="1196" type="line"/>
      <point x="978" y="0" type="line"/>
      <point x="825" y="0" type="line"/>
    </contour>
  </outline>
</glyph>
<glyph name="yadeva" format="1">
  <advance width="1195"/>
  <unicode hex="092F"/>
  <outline>
    <contour>
      <point x="-45" y="1165" type="line"/>
      <point x="-45" y="1279" type="line"/>
      <point x="1215" y="1279" type="line"/>
      <point x="1215" y="1165" type="line"/>
    </contour>
    <contour>
      <point x="329" y="1190" type="line"/>
      <point x="482" y="1190" type="line"/>
      <point x="482" y="959" type="line"/>
      <point x="482" y="778"/>
      <point x="392" y="630"/>
      <point x="179" y="561" type="curve"/>
      <point x="181" y="615" type="line"/>
      <point x="271" y="488"/>
      <point x="376" y="408"/>
      <point x="510" y="408" type="curve" smooth="yes"/>
      <point x="662" y="408"/>
      <point x="782" y="490"/>
      <point x="862" y="629" type="curve"/>
      <point x="862" y="430" type="line"/>
      <point x="789" y="341"/>
      <point x="684" y="280"/>
      <point x="538" y="280" type="curve" smooth="yes"/>
      <point x="342" y="280"/>
      <point x="148" y="410"/>
      <point x="40" y="627" type="curve"/>
      <point x="40" y="632" type="line"/>
      <point x="278" y="723"/>
      <point x="329" y="833"/>
      <point x="329" y="980" type="curve" smooth="yes"/>
    </contour>
    <contour>
      <point x="814" y="1196" type="line"/>
      <point x="967" y="1196" type="line"/>
      <point x="967" y="0" type="line"/>
      <point x="814" y="0" type="line"/>
    </contour>
  </outline>
</glyph>
<glyph name="radeva" format="1">
  <advance width="903"/>
  <unicode hex="0930"/>
  <outline>
    <contour>
      <point x="733" y="63" type="line"/>
      <point x="627" y="-12" type="line"/>
      <point x="146" y="646" type="line"/>
      <point x="99" y="708"/>
      <point x="74" y="749"/>
      <point x="74" y="786" type="curve" smooth="yes"/>
      <point x="74" y="817"/>
      <point x="101" y="843"/>
      <point x="137" y="843" type="curve" smooth="yes"/>
      <point x="177" y="843"/>
      <point x="215" y="790"/>
      <point x="258" y="731" type="curve" smooth="yes"/>
      <point x="362" y="587" type="line"/>
      <point x="367" y="567" type="line"/>
    </contour>
    <contour>
      <point x="282" y="613" type="line"/>
      <point x="462" y="655"/>
      <point x="540" y="763"/>
      <point x="540" y="934" type="curve" smooth="yes"/>
      <point x="540" y="1202" type="line"/>
      <point x="693" y="1202" type="line"/>
      <point x="693" y="911" type="line"/>
      <point x="693" y="733"/>
      <point x="614" y="555"/>
      <point x="373" y="493" type="curve"/>
    </contour>
    <contour>
      <point x="-40" y="1165" type="line"/>
      <point x="-40" y="1279" type="line"/>
      <point x="945" y="1279" type="line"/>
      <point x="945" y="1165" type="line"/>
    </contour>
    <contour>
      <point x="28" y="8" type="move" name="x27"/>
    </contour>
    <contour>
      <point x="542" y="8" type="move" name="mark0"/>
    </contour>
  </outline>
</glyph>
<glyph name="aavowelsigndeva" format="1">
  <advance width="580"/>
  <unicode hex="093E"/>
  <outline>
    <contour>
      <point x="199" y="1196" type="line"/>
      <point x="352" y="1196" type="line"/>
      <point x="352" y="0" type="line"/>
      <point x="199" y="0" type="line"/>
    </contour>
    <contour>
      <point x="599" y="1165" type="line"/>
      <point x="-21" y="1165" type="line"/>
      <point x="-21" y="1279" type="line"/>
      <point x="599" y="1279" type="line"/>
    </contour>
  </outline>
</glyph>
<glyph name="rvocalicvowelsigndeva" format="1">
  <advance width="0"/>
  <unicode hex="0943"/>
  <outline>
    <contour>
      <point x="-2" y="-527" type="line"/>
      <point x="-89" y="-562"/>
      <point x="-162" y="-580"/>
      <point x="-247" y="-580" type="curve" smooth="yes"/>
      <point x="-431" y="-580"/>
      <point x="-583" y="-481"/>
      <point x="-583" y="-293" type="curve" smooth="yes"/>
      <point x="-583" y="-118"/>
      <point x="-426" y="-21"/>
      <point x="-251" y="-8" type="curve" smooth="yes"/>
      <point x="-230" y="-8"/>
      <point x="-209" y="-74"/>
      <point x="-197" y="-78" type="curve"/>
      <point x="-289" y="-92"/>
      <point x="-376" y="-173"/>
      <point x="-376" y="-278" type="curve"/>
      <point x="-385" y="-369"/>
      <point x="-313" y="-410"/>
      <point x="-243" y="-410" type="curve" smooth="yes"/>
      <point x="-238" y="-410"/>
      <point x="-222" y="-422"/>
      <point x="-192" y="-428" type="curve" smooth="yes"/>
      <point x="-192" y="-440"/>
      <point x="-185" y="-449"/>
      <point x="-165" y="-449" type="curve" smooth="yes"/>
      <point x="-124" y="-442"/>
      <point x="-81" y="-428"/>
      <point x="-35" y="-408" type="curve"/>
    </contour>
    <contour>
      <point x="-366" y="-21" type="move" name="_mark0"/>
    </contour>
  </outline>
</glyph>
<glyph name="ecandravowelsigndeva" format="1">
  <advance width="0"/>
  <unicode hex="0945"/>
  <outline>
    <contour>
      <point x="113" y="1749" type="line"/>
      <point x="45" y="1557"/>
      <point x="-89" y="1440"/>
      <point x="-306" y="1440" type="curve" smooth="yes"/>
      <point x="-515" y="1440"/>
      <point x="-647" y="1571"/>
      <point x="-738" y="1745" type="curve"/>
      <point x="-654" y="1817" type="line"/>
      <point x="-575" y="1675"/>
      <point x="-476" y="1561"/>
      <point x="-305" y="1562" type="curve" smooth="yes"/>
      <point x="-127" y="1562"/>
      <point x="-48" y="1672"/>
      <point x="17" y="1819" type="curve"/>
    </contour>
    <contour>
      <point x="11" y="-21" type="move" name="x14"/>
    </contour>
    <contour>
      <point x="-366" y="1253" type="move" name="_mark0"/>
    </contour>
  </outline>
</glyph>
<glyph name="evowelsigndeva" format="1">
  <advance width="0"/>
  <unicode hex="0947"/>
  <outline>
    <contour>
      <point x="-375" y="1244" type="line"/>
      <point x="-831" y="1689" type="line"/>
      <point x="-706" y="1759" type="line"/>
      <point x="-206" y="1244" type="line"/>
    </contour>
    <contour>
      <point x="49" y="8" type="move" name="x14"/>
    </contour>
    <contour>
      <point x="-424" y="1282" type="move" name="_mark0"/>
    </contour>
  </outline>
</glyph>
<glyph name="aivowelsigndeva" format="1">
  <advance width="0"/>
  <unicode hex="0948"/>
  <outline>
    <contour>
      <point x="-521" y="1244" type="line"/>
      <point x="-1014" y="1613" type="line"/>
      <point x="-906" y="1701" type="line"/>
      <point x="-334" y="1244" type="line"/>
    </contour>
    <contour>
      <point x="-359" y="1244" type="line"/>
      <point x="-596" y="1804" type="line"/>
      <point x="-464" y="1837" type="line"/>
      <point x="-226" y="1244" type="line"/>
    </contour>
    <contour>
      <point x="49" y="8" type="move" name="x27"/>
    </contour>
    <contour>
      <point x="-424" y="1282" type="move" name="_mark0"/>
    </contour>
  </outline>
</glyph>
<glyph name="udattadeva" format="1">
  <advance width="23"/>
  <unicode hex="0951"/>
  <outline>
    <contour>
      <point x="-190" y="1787" type="line"/>
      <point x="-190" y="1443" type="line"/>
      <point x="-355" y="1443" type="line"/>
      <point x="-355" y="1787" type="line"/>
    </contour>
    <contour>
      <point x="-366" y="1253" type="move" name="_mark0"/>
    </contour>
    <contour>
      <point x="11" y="-21" type="move" name="x4"/>
    </contour>
  </outline>
</glyph>
<glyph name="uni0953" format="1">
  <advance width="23"/>
  <unicode hex="0953"/>
  <outline>
    <contour>
      <point x="-195" y="1447" type="line"/>
      <point x="-323" y="1447" type="line"/>
      <point x="-375" y="1536"/>
      <point x="-490" y="1722"/>
      <point x="-543" y="1810" type="curve"/>
      <point x="-333" y="1810" type="line"/>
    </contour>
    <contour>
      <point x="-366" y="1253" type="move" name="_mark0"/>
    </contour>
    <contour>
      <point x="11" y="-21" type="move" name="x4"/>
    </contour>
  </outline>
</glyph>
<glyph name="uni0954" format="1">
  <advance width="23"/>
  <unicode hex="0954"/>
  <outline>
    <contour>
      <point x="-221" y="1810" type="line"/>
      <point x="-13" y="1810" type="line"/>
      <point x="-232" y="1447" type="line"/>
      <point x="-360" y="1447" type="line"/>
    </contour>
    <contour>
      <point x="-366" y="1253" type="move" name="_mark0"/>
    </contour>
    <contour>
      <point x="11" y="-21" type="move" name="x4"/>
    </contour>
  </outline>
</glyph>
<glyph name="khhadeva" format="1">
  <advance width="1741"/>
  <unicode hex="0959"/>
  <outline>
    <contour>
      <point x="0" y="0" type="line"/>
      <point x="1741" y="0" type="line"/>
      <point x="1741" y="20" type="line"/>
      <point x="0" y="20" type="line"/>
    </contour>
  </outline>
</glyph>
<glyph name="fadeva" format="1">
  <advance width="1721"/>
  <unicode hex="095E"/>
  <outline>
    <contour>
      <point x="0" y="0" type="line"/>
      <point x="1721" y="0" type="line"/>
      <point x="1721" y="20" type="line"/>
      <point x="0" y="20" type="line"/>
    </contour>
  </outline>
</glyph>
<glyph name="yyadeva" format="1">
  <advance width="1298"/>
  <unicode hex="095F"/>
  <outline>
    <contour>
      <point x="0" y="0" type="line"/>
      <point x="1298" y="0" type="line"/>
      <point x="1298" y="20" type="line"/>
      <point x="0" y="20" type="line"/>
    </contour>
  </outline>
</glyph>
<glyph name="fourdeva" format="1">
  <advance width="1182"/>
  <unicode hex="096A"/>
  <outline>
    <contour>
      <point x="0" y="0" type="line"/>
      <point x="1182" y="0" type="line"/>
      <point x="1182" y="20" type="line"/>
      <point x="0" y="20" type="line"/>
    </contour>
  </outline>
</glyph>
<glyph name="fivedeva" format="1">
  <advance width="1181"/>
  <unicode hex="096B"/>
  <outline>
    <contour>
      <point x="0" y="0" type="line"/>
      <point x="1181" y="0" type="line"/>
      <point x="1181" y="20" type="line"/>
      <point x="0" y="20" type="line"/>
    </contour>
  </outline>
</glyph>
<glyph name="eightdeva" format="1">
  <advance width="1181"/>
  <unicode hex="096E"/>
  <outline>
    <contour>
      <point x="802" y="1288" type="line"/>
      <point x="929" y="1189" type="line"/>
      <point x="513" y="672" type="line"/>
      <point x="436" y="576"/>
      <point x="353" y="472"/>
      <point x="353" y="352" type="curve" smooth="yes"/>
      <point x="353" y="203"/>
      <point x="460" y="143"/>
      <point x="602" y="143" type="curve" smooth="yes"/>
      <point x="739" y="143"/>
      <point x="875" y="193"/>
      <point x="1015" y="287" type="curve"/>
      <point x="1092" y="149" type="line"/>
      <point x="949" y="57"/>
      <point x="792" y="0"/>
      <point x="624" y="0" type="curve" smooth="yes"/>
      <point x="400" y="0"/>
      <point x="200" y="138"/>
      <point x="200" y="369" type="curve" smooth="yes"/>
      <point x="200" y="534"/>
      <point x="298" y="664"/>
      <point x="402" y="792" type="curve" smooth="yes"/>
    </contour>
  </outline>
</glyph>
<glyph name="ninedeva" format="1">
  <advance width="1167"/>
  <unicode hex="096F"/>
  <outline>
    <contour>
      <point x="0" y="0" type="line"/>
      <point x="1167" y="0" type="line"/>
      <point x="1167" y="20" type="line"/>
      <point x="0" y="20" type="line"/>
    </contour>
  </outline>
</glyph>
<glyph name="uni0971" format="1">
  <advance width="690"/>
  <unicode hex="0971"/>
  <outline>
    <contour>
      <point x="0" y="0" type="line"/>
      <point x="690" y="0" type="line"/>
      <point x="690" y="20" type="line"/>
      <point x="0" y="20" type="line"/>
    </contour>
  </outline>
</glyph>
<glyph name="uni200C" format="1">
  <advance width="23"/>
  <unicode hex="200C"/>
  <outline>
    <contour>
      <point x="-27" y="-351" type="line"/>
      <point x="-27" y="1625" type="line"/>
      <point x="51" y="1625" type="line"/>
      <point x="51" y="-351" type="line"/>
    </contour>
  </outline>
</glyph>
<glyph name="uni25CC" format="1">
  <advance width="1085"/>
  <unicode hex="25CC"/>
  <outline>
    <contour>
      <point x="596" y="1008" type="curve" smooth="yes"/>
      <point x="596" y="984"/>
      <point x="582" y="969"/>
      <point x="551" y="969" type="curve" smooth="yes"/>
      <point x="520" y="969"/>
      <point x="507" y="985"/>
      <point x="507" y="1008" type="curve" smooth="yes"/>
      <point x="507" y="1030"/>
      <point x="520" y="1045"/>
      <point x="551" y="1045" type="curve" smooth="yes"/>
      <point x="582" y="1045"/>
      <point x="596" y="1031"/>
    </contour>
    <contour>
      <point x="318" y="902" type="curve" smooth="yes"/>
      <point x="318" y="880"/>
      <point x="304" y="863"/>
      <point x="273" y="863" type="curve" smooth="yes"/>
      <point x="243" y="863"/>
      <point x="229" y="880"/>
      <point x="229" y="902" type="curve" smooth="yes"/>
      <point x="229" y="925"/>
      <point x="243" y="941"/>
      <point x="273" y="941" type="curve" smooth="yes"/>
      <point x="304" y="941"/>
      <point x="318" y="925"/>
    </contour>
    <contour>
      <point x="875" y="902" type="curve" smooth="yes"/>
      <point x="875" y="880"/>
      <point x="861" y="863"/>
      <point x="831" y="863" type="curve" smooth="yes"/>
      <point x="801" y="863"/>
      <point x="787" y="880"/>
      <point x="787" y="902" type="curve" smooth="yes"/>
      <point x="787" y="925"/>
      <point x="801" y="941"/>
      <point x="831" y="941" type="curve" smooth="yes"/>
      <point x="861" y="941"/>
      <point x="875" y="925"/>
    </contour>
    <contour>
      <point x="972" y="638" type="curve" smooth="yes"/>
      <point x="972" y="615"/>
      <point x="957" y="600"/>
      <point x="926" y="600" type="curve" smooth="yes"/>
      <point x="896" y="600"/>
      <point x="882" y="616"/>
      <point x="882" y="638" type="curve" smooth="yes"/>
      <point x="882" y="660"/>
      <point x="896" y="676"/>
      <point x="926" y="676" type="curve" smooth="yes"/>
      <point x="957" y="676"/>
      <point x="972" y="661"/>
    </contour>
    <contour>
      <point x="220" y="638" type="curve" smooth="yes"/>
      <point x="220" y="616"/>
      <point x="206" y="600"/>
      <point x="176" y="600" type="curve" smooth="yes"/>
      <point x="145" y="600"/>
      <point x="132" y="616"/>
      <point x="132" y="638" type="curve" smooth="yes"/>
      <point x="132" y="660"/>
      <point x="145" y="676"/>
      <point x="176" y="676" type="curve" smooth="yes"/>
      <point x="206" y="676"/>
      <point x="220" y="660"/>
    </contour>
    <contour>
      <point x="318" y="374" type="curve" smooth="yes"/>
      <point x="318" y="351"/>
      <point x="304" y="335"/>
      <point x="273" y="335" type="curve" smooth="yes"/>
      <point x="243" y="335"/>
      <point x="229" y="351"/>
      <point x="229" y="374" type="curve" smooth="yes"/>
      <point x="229" y="396"/>
      <point x="243" y="413"/>
      <point x="273" y="413" type="curve" smooth="yes"/>
      <point x="304" y="413"/>
      <point x="318" y="396"/>
    </contour>
    <contour>
      <point x="875" y="374" type="curve" smooth="yes"/>
      <point x="875" y="351"/>
      <point x="861" y="335"/>
      <point x="831" y="335" type="curve" smooth="yes"/>
      <point x="801" y="335"/>
      <point x="787" y="351"/>
      <point x="787" y="374" type="curve" smooth="yes"/>
      <point x="787" y="396"/>
      <point x="801" y="413"/>
      <point x="831" y="413" type="curve" smooth="yes"/>
      <point x="861" y="413"/>
      <point x="875" y="396"/>
    </contour>
    <contour>
      <point x="596" y="268" type="curve" smooth="yes"/>
      <point x="596" y="245"/>
      <point x="582" y="230"/>
      <point x="551" y="230" type="curve" smooth="yes"/>
      <point x="520" y="230"/>
      <point x="507" y="246"/>
      <point x="507" y="268" type="curve" smooth="yes"/>
      <point x="507" y="291"/>
      <point x="520" y="307"/>
      <point x="551" y="307" type="curve" smooth="yes"/>
      <point x="582" y="307"/>
      <point x="596" y="292"/>
    </contour>
  </outline>
</glyph>
<glyph name="baprehalfdeva" format="1">
  <advance width="809"/>
  <outline>
    <contour>
      <point x="0" y="0" type="line"/>
      <point x="809" y="0" type="line"/>
      <point x="809" y="20" type="line"/>
      <point x="0" y="20" type="line"/>
    </contour>
  </outline>
</glyph>
<glyph name="bhaprehalfdeva" format="1">
  <advance width="925"/>
  <outline>
    <contour>
      <point x="597" y="647" type="line"/>
      <point x="597" y="627"/>
      <point x="607" y="513"/>
      <point x="529" y="513" type="curve" smooth="yes"/>
      <point x="493" y="513"/>
      <point x="465" y="522"/>
      <point x="445" y="526" type="curve" smooth="yes"/>
      <point x="445" y="511"/>
      <point x="455" y="499"/>
      <point x="490" y="495" type="curve"/>
      <point x="461" y="516"/>
      <point x="434" y="498"/>
      <point x="414" y="528" type="curve"/>
      <point x="346" y="528"/>
      <point x="300" y="561"/>
      <point x="300" y="617" type="curve" smooth="yes"/>
      <point x="285" y="672"/>
      <point x="294" y="728"/>
      <point x="351" y="756" type="curve" smooth="yes"/>
      <point x="421" y="819"/>
      <point x="572" y="762"/>
      <point x="610" y="701" type="curve" smooth="yes"/>
      <point x="610" y="831" type="line"/>
      <point x="610" y="881"/>
      <point x="601" y="944"/>
      <point x="586" y="992" type="curve"/>
      <point x="696" y="991" type="line"/>
      <point x="672" y="1062"/>
      <point x="619" y="1032"/>
      <point x="544" y="1032" type="curve"/>
      <point x="481" y="1032"/>
      <point x="311" y="1002"/>
      <point x="311" y="932" type="curve"/>
      <point x="311" y="843"/>
      <point x="419" y="828"/>
      <point x="491" y="820" type="curve"/>
      <point x="485" y="719" type="line"/>
      <point x="375" y="711"/>
      <point x="261" y="745"/>
      <point x="239" y="872" type="curve" smooth="yes"/>
      <point x="195" y="981"/>
      <point x="225" y="1087"/>
      <point x="326" y="1123" type="curve" smooth="yes"/>
      <point x="612" y="1145"/>
      <point x="570" y="835"/>
      <point x="586" y="643" type="curve" smooth="yes"/>
      <point x="938" y="643" type="line"/>
      <point x="929" y="566" type="line"/>
    </contour>
    <contour>
      <point x="979" y="1154" type="line"/>
      <point x="877" y="1223" type="line"/>
      <point x="906" y="1279" type="line"/>
      <point x="1008" y="1210" type="line"/>
    </contour>
  </outline>
</glyph>
<glyph name="daudeva" format="1">
  <advance width="1143"/>
  <outline>
    <contour>
      <point x="0" y="0" type="line"/>
      <point x="1143" y="0" type="line"/>
      <point x="1143" y="20" type="line"/>
      <point x="0" y="20" type="line"/>
    </contour>
  </outline>
</glyph>
<glyph name="davadeva" format="1">
  <advance width="1381"/>
  <outline>
    <contour>
      <point x="0" y="0" type="line"/>
      <point x="1381" y="0" type="line"/>
      <point x="1381" y="20" type="line"/>
      <point x="0" y="20" type="line"/>
    </contour>
  </outline>
</glyph>
<glyph name="ddanuktaraprehalfUIdeva" format="1">
  <advance width="1393"/>
  <outline>
    <contour>
      <point x="0" y="0" type="line"/>
      <point x="1393" y="0" type="line"/>
      <point x="1393" y="20" type="line"/>
      <point x="0" y="20" type="line"/>
    </contour>
  </outline>
</glyph>
<glyph name="ddhaaltdeva" format="1">
  <advance width="1246"/>
  <outline>
    <contour>
      <point x="0" y="0" type="line"/>
      <point x="1246" y="0" type="line"/>
      <point x="1246" y="20" type="line"/>
      <point x="0" y="20" type="line"/>
    </contour>
  </outline>
</glyph>
<glyph name="garaprehalfdeva" format="1">
  <advance width="760"/>
  <outline>
    <contour>
      <point x="470" y="1150" type="line"/>
      <point x="470" y="476" type="line"/>
      <point x="470" y="418"/>
      <point x="442" y="372"/>
      <point x="373" y="372" type="curve" smooth="yes"/>
      <point x="304" y="372"/>
      <point x="231" y="441"/>
      <point x="193" y="492" type="curve"/>
      <point x="179" y="501"/>
      <point x="167" y="510"/>
      <point x="160" y="519" type="curve"/>
      <point x="137" y="556"/>
      <point x="120" y="595"/>
      <point x="120" y="631" type="curve" smooth="yes"/>
      <point x="120" y="731"/>
      <point x="226" y="722"/>
      <point x="305" y="724" type="curve"/>
      <point x="305" y="1150" type="line"/>
      <point x="37" y="1150" type="line"/>
      <point x="37" y="1274" type="line"/>
      <point x="778" y="1274" type="line"/>
      <point x="778" y="1150" type="line"/>
    </contour>
    <contour>
      <point x="936" y="288" type="line"/>
      <point x="889" y="261"/>
      <point x="455" y="-19"/>
      <point x="408" y="-46" type="curve"/>
      <point x="392" y="-23"/>
      <point x="336" y="50"/>
      <point x="319" y="72" type="curve"/>
      <point x="452" y="154"/>
      <point x="733" y="307"/>
      <point x="867" y="387" type="curve"/>
    </contour>
  </outline>
</glyph>
<glyph name="hanuktaprehalfdeva" format="1">
  <advance width="1069"/>
  <outline>
    <contour>
      <point x="0" y="0" type="line"/>
      <point x="1069" y="0" type="line"/>
      <point x="1069" y="20" type="line"/>
      <point x="0" y="20" type="line"/>
    </contour>
  </outline>
</glyph>
<glyph name="hanuktarrvocalicdeva" format="1">
  <advance width="1221"/>
  <outline>
    <contour>
      <point x="0" y="0" type="line"/>
      <point x="1221" y="0" type="line"/>
      <point x="1221" y="20" type="line"/>
      <point x="0" y="20" type="line"/>
    </contour>
  </outline>
</glyph>
<glyph name="hauUIdeva" format="1">
  <advance width="1356"/>
  <outline>
    <contour>
      <point x="777" y="46" type="curve" smooth="yes"/>
      <point x="818" y="46"/>
      <point x="854" y="44"/>
      <point x="894" y="37" type="curve"/>
      <point x="894" y="48" type="line"/>
      <point x="801" y="208" type="line"/>
      <point x="853" y="224"/>
      <point x="876" y="246"/>
      <point x="876" y="276" type="curve" smooth="yes"/>
      <point x="876" y="325"/>
      <point x="817" y="348"/>
      <point x="699" y="348" type="curve" smooth="yes"/>
      <point x="560" y="348"/>
      <point x="489" y="307"/>
      <point x="489" y="242" type="curve" smooth="yes"/>
      <point x="490" y="172"/>
      <point x="534" y="124"/>
      <point x="694" y="43" type="curve"/>
      <point x="716" y="46"/>
      <point x="748" y="46"/>
    </contour>
    <contour>
      <point x="584" y="-202" type="line"/>
      <point x="584" y="-193" type="line"/>
      <point x="406" y="-102"/>
      <point x="286" y="-26"/>
      <point x="223" y="34" type="curve" smooth="yes"/>
      <point x="146" y="113"/>
      <point x="107" y="189"/>
      <point x="107" y="268" type="curve" smooth="yes"/>
      <point x="107" y="340"/>
      <point x="145" y="405"/>
      <point x="221" y="464" type="curve"/>
      <point x="221" y="473" type="line"/>
      <point x="164" y="537"/>
      <point x="133" y="603"/>
      <point x="133" y="671" type="curve" smooth="yes"/>
      <point x="133" y="754"/>
      <point x="185" y="823"/>
      <point x="260" y="873" type="curve" smooth="yes"/>
      <point x="293" y="895"/>
      <point x="344" y="912"/>
      <point x="403" y="924" type="curve"/>
      <point x="451" y="932"/>
      <point x="520" y="937"/>
      <point x="607" y="937" type="curve"/>
      <point x="785" y="937" type="line"/>
      <point x="785" y="1036" type="line"/>
      <point x="8" y="1036" type="line"/>
      <point x="8" y="1274" type="line"/>
      <point x="1371" y="1274" type="line"/>
      <point x="1371" y="1036" type="line"/>
      <point x="1165" y="1036" type="line"/>
      <point x="1165" y="698" type="line"/>
      <point x="610" y="698" type="line"/>
      <point x="576" y="698"/>
      <point x="552" y="695"/>
      <point x="533" y="689" type="curve" smooth="yes"/>
      <point x="517" y="683"/>
      <point x="508" y="660"/>
      <point x="508" y="623" type="curve" smooth="yes"/>
      <point x="508" y="601"/>
      <point x="510" y="586"/>
      <point x="516" y="575" type="curve"/>
      <point x="585" y="585"/>
      <point x="657" y="589"/>
      <point x="724" y="589" type="curve" smooth="yes"/>
      <point x="884" y="589"/>
      <point x="1018" y="555"/>
      <point x="1105" y="508" type="curve"/>
      <point x="1194" y="449"/>
      <point x="1254" y="374"/>
      <point x="1254" y="299" type="curve" smooth="yes"/>
      <point x="1254" y="182"/>
      <point x="1162" y="91"/>
      <point x="982" y="30" type="curve"/>
      <point x="982" y="16" type="line"/>
      <point x="1022" y="0"/>
      <point x="1055" y="-17"/>
      <point x="1079" y="-34" type="curve"/>
      <point x="1078" y="-34" type="line"/>
      <point x="1153" y="-96"/>
      <point x="1195" y="-171"/>
      <point x="1195" y="-252" type="curve" smooth="yes"/>
      <point x="1195" y="-330"/>
      <point x="1151" y="-405"/>
      <point x="1076" y="-463" type="curve"/>
      <point x="1008" y="-510"/>
      <point x="901" y="-541"/>
      <point x="770" y="-541" type="curve" smooth="yes"/>
      <point x="517" y="-541"/>
      <point x="302" y="-462"/>
      <point x="76" y="-287" type="curve"/>
      <point x="282" y="-100" type="line"/>
      <point x="394" y="-195"/>
      <point x="474" y="-252"/>
      <point x="524" y="-276" type="curve" smooth="yes"/>
      <point x="590" y="-306"/>
      <point x="660" y="-322"/>
      <point x="737" y="-322" type="curve" smooth="yes"/>
      <point x="812" y="-322"/>
      <point x="849" y="-297"/>
      <point x="849" y="-246" type="curve" smooth="yes"/>
      <point x="849" y="-196"/>
      <point x="819" y="-173"/>
      <point x="762" y="-173" type="curve" smooth="yes"/>
      <point x="725" y="-173"/>
      <point x="662" y="-187"/>
      <point x="580" y="-211" type="curve"/>
    </contour>
  </outline>
</glyph>
<glyph name="hauudeva" format="1">
  <advance width="1157"/>
  <outline>
    <contour>
      <point x="0" y="0" type="line"/>
      <point x="1157" y="0" type="line"/>
      <point x="1157" y="20" type="line"/>
      <point x="0" y="20" type="line"/>
    </contour>
  </outline>
</glyph>
<glyph name="iivowelsignrephanusvara2deva" format="1">
  <advance width="604"/>
  <outline>
    <contour>
      <point x="0" y="0" type="line"/>
      <point x="604" y="0" type="line"/>
      <point x="604" y="20" type="line"/>
      <point x="0" y="20" type="line"/>
    </contour>
  </outline>
</glyph>
<glyph name="karadeva" format="1">
  <advance width="1601"/>
  <outline>
    <contour>
      <point x="0" y="0" type="line"/>
      <point x="1601" y="0" type="line"/>
      <point x="1601" y="20" type="line"/>
      <point x="0" y="20" type="line"/>
    </contour>
  </outline>
</glyph>
<glyph name="kassadeva" format="1">
  <advance width="1579"/>
  <outline>
    <contour>
      <point x="0" y="0" type="line"/>
      <point x="1579" y="0" type="line"/>
      <point x="1579" y="20" type="line"/>
      <point x="0" y="20" type="line"/>
    </contour>
  </outline>
</glyph>
<glyph name="kassaprehalfdeva" format="1">
  <advance width="1031"/>
  <outline>
    <contour>
      <point x="0" y="0" type="line"/>
      <point x="1031" y="0" type="line"/>
      <point x="1031" y="20" type="line"/>
      <point x="0" y="20" type="line"/>
    </contour>
  </outline>
</glyph>
<glyph name="kassaradeva" format="1">
  <advance width="1683"/>
  <outline>
    <contour>
      <point x="0" y="0" type="line"/>
      <point x="1683" y="0" type="line"/>
      <point x="1683" y="20" type="line"/>
      <point x="0" y="20" type="line"/>
    </contour>
  </outline>
</glyph>
<glyph name="kharaprehalfdeva" format="1">
  <advance width="1406"/>
  <outline>
    <contour>
      <point x="0" y="0" type="line"/>
      <point x="1406" y="0" type="line"/>
      <point x="1406" y="20" type="line"/>
      <point x="0" y="20" type="line"/>
    </contour>
  </outline>
</glyph>
<glyph name="llvocalicnuktadeva" format="1">
  <advance width="1541"/>
  <outline>
    <component base="llvocalicdeva"/>
    <component base="nuktadeva" xOffset="1098" yOffset="3"/>
    <contour>
      <point x="1010" y="1274" type="move" name="mark0"/>
    </contour>
  </outline>
</glyph>
<glyph name="maprehalfdeva" format="1">
  <advance width="711"/>
  <outline>
    <contour>
      <point x="0" y="0" type="line"/>
      <point x="711" y="0" type="line"/>
      <point x="711" y="20" type="line"/>
      <point x="0" y="20" type="line"/>
    </contour>
  </outline>
</glyph>
<glyph name="naraprehalfdeva" format="1">
  <advance width="850"/>
  <outline>
    <contour>
      <point x="0" y="0" type="line"/>
      <point x="850" y="0" type="line"/>
      <point x="850" y="20" type="line"/>
      <point x="0" y="20" type="line"/>
    </contour>
  </outline>
</glyph>
<glyph name="ngayadeva" format="1">
  <advance width="2723"/>
  <outline>
    <contour>
      <point x="0" y="0" type="line"/>
      <point x="2723" y="0" type="line"/>
      <point x="2723" y="20" type="line"/>
      <point x="0" y="20" type="line"/>
    </contour>
  </outline>
</glyph>
<glyph name="nnaradeva" format="1">
  <advance width="1584"/>
  <outline>
    <contour>
      <point x="0" y="0" type="line"/>
      <point x="1584" y="0" type="line"/>
      <point x="1584" y="20" type="line"/>
      <point x="0" y="20" type="line"/>
    </contour>
  </outline>
</glyph>
<glyph name="paprehalfdeva" format="1">
  <advance width="671"/>
  <outline>
    <contour>
      <point x="0" y="0" type="line"/>
      <point x="671" y="0" type="line"/>
      <point x="671" y="20" type="line"/>
      <point x="0" y="20" type="line"/>
    </contour>
  </outline>
</glyph>
<glyph name="paradeva" format="1">
  <advance width="1217"/>
  <outline>
    <contour>
      <point x="0" y="0" type="line"/>
      <point x="1217" y="0" type="line"/>
      <point x="1217" y="20" type="line"/>
      <point x="0" y="20" type="line"/>
    </contour>
  </outline>
</glyph>
<glyph name="pharadeva" format="1">
  <advance width="1637"/>
  <outline>
    <contour>
      <point x="0" y="0" type="line"/>
      <point x="1637" y="0" type="line"/>
      <point x="1637" y="20" type="line"/>
      <point x="0" y="20" type="line"/>
    </contour>
  </outline>
</glyph>
<glyph name="raprehalfdeva" format="1">
  <advance width="772"/>
  <outline>
    <contour>
      <point x="641" y="1154" type="line"/>
      <point x="15" y="1210" type="line"/>
      <point x="217" y="1279" type="line"/>
      <point x="843" y="1223" type="line"/>
    </contour>
    <contour>
      <point x="882" y="566" type="line"/>
      <point x="789" y="518"/>
      <point x="697" y="501"/>
      <point x="590" y="501" type="curve" smooth="yes"/>
      <point x="418" y="501"/>
      <point x="234" y="570"/>
      <point x="88" y="656" type="curve"/>
      <point x="136" y="764" type="line"/>
      <point x="268" y="695"/>
      <point x="402" y="648"/>
      <point x="545" y="648" type="curve" smooth="yes"/>
      <point x="662" y="648"/>
      <point x="746" y="667"/>
      <point x="858" y="716" type="curve"/>
    </contour>
  </outline>
</glyph>
<glyph name="rephdeva" format="1">
  <advance width="-1"/>
  <outline>
    <contour>
      <point x="-367" y="1244" type="line"/>
      <point x="-445" y="1346"/>
      <point x="-494" y="1450"/>
      <point x="-494" y="1554" type="curve" smooth="yes"/>
      <point x="-494" y="1673"/>
      <point x="-408" y="1774"/>
      <point x="-250" y="1774" type="curve" smooth="yes"/>
      <point x="-166" y="1774"/>
      <point x="-128" y="1767"/>
      <point x="-76" y="1754" type="curve"/>
      <point x="-84" y="1652" type="line"/>
      <point x="-125" y="1660"/>
      <point x="-156" y="1665"/>
      <point x="-201" y="1665" type="curve" smooth="yes"/>
      <point x="-301" y="1665"/>
      <point x="-352" y="1605"/>
      <point x="-352" y="1517" type="curve" smooth="yes"/>
      <point x="-352" y="1431"/>
      <point x="-311" y="1352"/>
      <point x="-225" y="1244" type="curve"/>
    </contour>
    <contour>
      <point x="-424" y="1282" type="move" name="_mark0"/>
    </contour>
    <contour>
      <point x="49" y="8" type="move" name="x17"/>
    </contour>
  </outline>
</glyph>
<glyph name="sanuktadeva" format="1">
  <advance width="1506"/>
  <outline>
    <contour>
      <point x="0" y="0" type="line"/>
      <point x="1506" y="0" type="line"/>
      <point x="1506" y="20" type="line"/>
      <point x="0" y="20" type="line"/>
    </contour>
  </outline>
</glyph>
<glyph name="saradeva" format="1">
  <advance width="1513"/>
  <outline>
    <contour>
      <point x="0" y="0" type="line"/>
      <point x="1513" y="0" type="line"/>
      <point x="1513" y="20" type="line"/>
      <point x="0" y="20" type="line"/>
    </contour>
  </outline>
</glyph>
<glyph name="shadevaMAR" format="1">
  <advance width="1489"/>
  <outline>
    <contour>
      <point x="0" y="0" type="line"/>
      <point x="1489" y="0" type="line"/>
      <point x="1489" y="20" type="line"/>
      <point x="0" y="20" type="line"/>
    </contour>
  </outline>
</glyph>
<glyph name="ttanuktadeva" format="1">
  <advance width="1002"/>
  <outline>
    <component base="ttadeva"/>
    <component base="nuktadeva" xOffset="1210"/>
    <contour>
      <point x="641" y="1274" type="move" name="mark0"/>
    </contour>
  </outline>
</glyph>
<glyph name="ttattauudeva" format="1">
  <advance width="1123"/>
  <outline>
    <contour>
      <point x="0" y="0" type="line"/>
      <point x="1123" y="0" type="line"/>
      <point x="1123" y="20" type="line"/>
      <point x="0" y="20" type="line"/>
    </contour>
  </outline>
</glyph>
<glyph name="tthanuktadeva" format="1">
  <advance width="1231"/>
  <outline>
    <component base="tthadeva"/>
    <component base="nuktadeva" xOffset="1242"/>
    <contour>
      <point x="642" y="1274" type="move" name="mark0"/>
    </contour>
  </outline>
</glyph>
<glyph name="vattuuudeva" format="1">
  <advance width="38"/>
  <outline>
    <contour>
      <point x="0" y="0" type="line"/>
      <point x="38" y="0" type="line"/>
      <point x="38" y="20" type="line"/>
      <point x="0" y="20" type="line"/>
    </contour>
  </outline>
</glyph>
